<svg width="50" height="50" viewBox="0 0 50 50" fill="none" xmlns="http://www.w3.org/2000/svg">
<path d="M25 0C11.1929 0 0 11.1929 0 25C0 38.8071 11.1929 50 25 50C38.8071 50 50 38.8071 50 25C50 11.1929 38.8071 0 25 0ZM24.82 11.4441C28.196 11.4602 31.282 13.6131 32.5928 16.6168C33.0412 17.663 33.2794 18.7378 33.2794 19.9036V22.876H37.3749V38.5559H12.6251V22.876H16.391C16.3569 20.7757 16.3137 18.373 17.0502 16.6168C18.4823 13.4539 21.4438 11.428 24.82 11.4441ZM24.6368 16.4368C22.7668 16.4761 21.5335 17.8981 21.3531 19.9035V22.876H28.3173V19.873C28.2314 17.9713 26.7921 16.4891 24.8199 16.4368C24.7589 16.4353 24.6978 16.4353 24.6368 16.4368V16.4368Z" fill="#0170FE"/>
</svg>
